
<svg width="35" height="45" viewBox="0 0 47 46" fill="none" xmlns="http://www.w3.org/2000/svg">
<path d="M41.9166 19.0124H40.398V18.9342H23.43V26.4755H34.085C32.5305 30.8655 28.3536 34.0168 23.43 34.0168C17.183 34.0168 12.1181 28.9518 12.1181 22.7048C12.1181 16.4578 17.183 11.3929 23.43 11.3929C26.3136 11.3929 28.9371 12.4807 30.9346 14.2576L36.2672 8.92497C32.9 5.78685 28.396 3.85156 23.43 3.85156C13.0183 3.85156 4.57678 12.2931 4.57678 22.7048C4.57678 33.1165 13.0183 41.5581 23.43 41.5581C33.8417 41.5581 42.2833 33.1165 42.2833 22.7048C42.2833 21.4407 42.1532 20.2068 41.9166 19.0124Z" fill="#FFC107"/>
<path d="M6.75058 13.9296L12.9448 18.4723C14.6209 14.3227 18.68 11.3929 23.4301 11.3929C26.3137 11.3929 28.9371 12.4807 30.9346 14.2576L36.2672 8.92497C32.9 5.78685 28.396 3.85156 23.4301 3.85156C16.1885 3.85156 9.9085 7.93989 6.75058 13.9296Z" fill="#FF3D00"/>
<path d="M23.43 41.5586C28.2998 41.5586 32.7247 39.6949 36.0702 36.6643L30.2351 31.7266C28.2787 33.2145 25.888 34.0192 23.43 34.0173C18.5263 34.0173 14.3626 30.8904 12.794 26.5269L6.64594 31.2637C9.76615 37.3694 16.1027 41.5586 23.43 41.5586Z" fill="#4CAF50"/>
<path d="M41.9166 19.0128H40.398V18.9346H23.4301V26.4759H34.085C33.3414 28.5652 32.002 30.3909 30.2323 31.7274L30.2351 31.7256L36.0702 36.6632C35.6573 37.0384 42.2833 32.1318 42.2833 22.7052C42.2833 21.4411 42.1532 20.2072 41.9166 19.0128Z" fill="#1976D2"/>
</svg>
